<svg xmlns="http://www.w3.org/2000/svg" x="0px" y="0px"
width="24" height="24"
viewBox="0 0 172 172"
style=" fill:#000000;"><g fill="none" fill-rule="nonzero" stroke="none" stroke-width="1" stroke-linecap="butt" stroke-linejoin="miter" stroke-miterlimit="10" stroke-dasharray="" stroke-dashoffset="0" font-family="none" font-weight="none" font-size="none" text-anchor="none" style="mix-blend-mode: normal"><path d="M0,172v-172h172v172z" fill="none"></path><g fill="#ffffff"><path d="M86,14.33333c-39.517,0 -71.66667,30.54433 -71.66667,68.08333c0,18.23917 7.79733,35.74364 21.5,48.52897v31.14421l29.24056,-14.61328c6.87283,1.9995 13.90277,3.02344 20.92611,3.02344c39.517,0 71.66667,-30.54433 71.66667,-68.08333c0,-37.539 -32.14967,-68.08333 -71.66667,-68.08333zM86,28.66667c31.61217,0 57.33333,24.11583 57.33333,53.75c0,29.63417 -25.72117,53.75 -57.33333,53.75c-5.6545,0 -11.35435,-0.82988 -16.92285,-2.44955l-5.389,-1.56771l-5.02507,2.50553l-8.49642,4.25521v-7.96452v-6.22884l-4.56315,-4.24121c-10.76433,-10.04767 -16.93685,-23.92625 -16.93685,-38.05892c0,-29.63417 25.72117,-53.75 57.33333,-53.75zM78.83333,64.5l-35.83333,35.83333l32.25,-14.33333l17.91667,14.33333l35.83333,-35.83333l-32.25,14.33333z"></path></g></g></svg>