<svg xmlns="http://www.w3.org/2000/svg" x="0px" y="0px"
width="24" height="24"
viewBox="0 0 172 172"
style=" fill:#000000;"><g fill="none" fill-rule="nonzero" stroke="none" stroke-width="1" stroke-linecap="butt" stroke-linejoin="miter" stroke-miterlimit="10" stroke-dasharray="" stroke-dashoffset="0" font-family="none" font-weight="none" font-size="none" text-anchor="none" style="mix-blend-mode: normal"><path d="M0,172v-172h172v172z" fill="none"></path><g fill="#ffffff"><path d="M43,21.5c-11.78895,0 -21.5,9.71105 -21.5,21.5v86c0,11.78895 9.71105,21.5 21.5,21.5h86c11.78895,0 21.5,-9.71105 21.5,-21.5v-86c0,-11.78895 -9.71105,-21.5 -21.5,-21.5zM43,35.83333h86c4.04938,0 7.16667,3.11728 7.16667,7.16667v86c0,4.04938 -3.11729,7.16667 -7.16667,7.16667h-86c-4.04938,0 -7.16667,-3.11729 -7.16667,-7.16667v-86c0,-4.04938 3.11728,-7.16667 7.16667,-7.16667zM85.88802,50.06868c-3.95253,0.06178 -7.10881,3.312 -7.05469,7.26465v21.5h-21.5c-2.58456,-0.03655 -4.98858,1.32136 -6.29153,3.55376c-1.30295,2.2324 -1.30295,4.99342 0,7.22582c1.30295,2.2324 3.70697,3.59031 6.29153,3.55376h21.5v21.5c-0.03655,2.58456 1.32136,4.98858 3.55376,6.29153c2.2324,1.30295 4.99342,1.30295 7.22582,0c2.2324,-1.30295 3.59031,-3.70697 3.55376,-6.29153v-21.5h21.5c2.58456,0.03655 4.98858,-1.32136 6.29153,-3.55376c1.30295,-2.2324 1.30295,-4.99342 0,-7.22582c-1.30295,-2.2324 -3.70697,-3.59031 -6.29153,-3.55376h-21.5v-21.5c0.02653,-1.93715 -0.73227,-3.80254 -2.10349,-5.17112c-1.37122,-1.36858 -3.23806,-2.12378 -5.17516,-2.09353z"></path></g></g></svg>