<svg xmlns="http://www.w3.org/2000/svg" x="0px" y="0px"
width="30" height="30"
viewBox="0 0 172 172"
style=" fill:#000000;"><g fill="none" fill-rule="nonzero" stroke="none" stroke-width="1" stroke-linecap="butt" stroke-linejoin="miter" stroke-miterlimit="10" stroke-dasharray="" stroke-dashoffset="0" font-family="none" font-weight="none" font-size="none" text-anchor="none" style="mix-blend-mode: normal"><path d="M0,172v-172h172v172z" fill="none"></path><g fill="#ffffff"><path d="M34.4,17.2c-6.33287,0 -11.46667,5.1338 -11.46667,11.46667v34.4c0.00765,4.86729 3.08727,9.19941 7.68177,10.80599c1.21549,0.43153 2.49509,0.65489 3.7849,0.66067c0.04106,0.00022 0.08212,0.00022 0.12318,0l68.67682,11.46667l-68.67682,11.47786c-0.04104,-0.00395 -0.0821,-0.00769 -0.12318,-0.0112c-1.29357,0.00453 -2.57705,0.2279 -3.79609,0.66067c-4.59008,1.61037 -7.6646,5.94162 -7.67057,10.80599v34.4c0,6.33287 5.1338,11.46667 11.46667,11.46667c1.99642,-0.00378 3.95727,-0.52873 5.68854,-1.52292h0.0112l116.93984,-61.99167l0.0112,-0.02239c2.10882,-0.90013 3.47854,-2.97014 3.48255,-5.26302c0.00305,-2.30372 -1.37306,-4.38553 -3.49375,-5.28542l-116.93984,-61.99167c-1.73457,-0.99608 -3.69952,-1.52109 -5.69974,-1.52292z"></path></g></g></svg>